<svg xmlns="http://www.w3.org/2000/svg" viewBox="0 0 87.3 78" role="img" aria-hidden="true">
  <defs>
    <mask id="google-drive-center-cutout">
      <rect width="87.3" height="78" fill="#fff" />
      <path
        d="M43.65 31.2 56.2 52.8 31.1 52.8Z"
        fill="#000"
      />
    </mask>
  </defs>
  <g mask="url(#google-drive-center-cutout)">
    <path
      d="M6.6 66.85l3.85 6.65c.8 1.4 1.95 2.5 3.3 3.3l13.75-23.8h-27.5c0 1.55.4 3.1 1.2 4.5z"
      fill="#0066DA"
    />
    <path
      d="M43.65 25l13.75-23.8c-1.35-.8-2.9-1.2-4.5-1.2h-18.5c-1.6 0-3.15.45-4.5 1.25l13.75 23.75z"
      fill="#00AC47"
    />
    <path
      d="M73.55 76.8c1.35-.8 2.5-1.9 3.3-3.3l9.6-16.65c.8-1.4 1.2-2.95 1.2-4.5h-27.5l13.4 24.45z"
      fill="#EA4335"
    />
    <path
      d="M43.65 25 29.9 1.2c-1.35.8-2.5 1.9-3.3 3.3l-9.6 16.65c-.8 1.4-1.2 2.95-1.2 4.5h27.85z"
      fill="#00832D"
    />
    <path
      d="M59.8 53.05h27.5c0-1.55-.4-3.1-1.2-4.5l-3.85-6.65c-.8-1.4-1.95-2.5-3.3-3.3l-13.75 23.8z"
      fill="#2684FC"
    />
    <path
      d="M73.4 76.8l-13.75-23.75h-27.5l13.75 23.75c1.6 0 3.15-.45 4.5-1.25z"
      fill="#FFBA00"
    />
  </g>
</svg>
