<svg viewBox="0 0 850 512" fill="none" xmlns="http://www.w3.org/2000/svg">
<path fill-rule="evenodd" clip-rule="evenodd" d="M633.75 183.699C636.98 183.479 640.82 184.88 642.9 188L731.49 321.01L767.94 375.48L848.92 497.89C850.35 500.05 849.99 504.64 849.21 506.71C848.49 508.6 845.75 511.529 842.91 511.529L729.15 511.819V511.84C704.73 511.9 683.83 500.139 668.16 482.239C659.16 471.949 651.71 461.769 643.92 450.279L562.59 330.319C552.05 314.78 554.13 297.969 563.82 283.19L625.94 188.48C627.79 185.66 631.03 183.889 633.75 183.699ZM195.2 28.4093C248.92 -14.2003 325.31 -9.21023 368.77 45.6192C380.71 60.6792 389.69 76.8298 395.8 95.2198C403.11 117.2 407.21 139.45 409.47 162.63C409.84 166.39 408.23 170.65 405.76 172.819C402.07 176.069 396.2 175.629 393.84 171.119C383.83 151.979 368.92 135.45 349.2 126.56C329.48 117.67 307.32 120.659 291.34 135.539C281.71 144.509 275.38 155.17 270.59 167.73L219.35 302.119L194.86 366.26H194.88C178.66 408.73 157.78 452.21 121.92 481.27C101.48 497.84 77.4501 510.06 50.9102 510.26L8.79004 510.579C6.54004 510.599 3.03965 509.109 1.88965 507.659C0.209939 505.529 0.0299981 502.549 0 499.069L50.8203 359.6L92.1299 245.59L140.38 111.76C152.42 78.3699 166.93 50.8393 195.2 28.4093ZM640.12 1.14952C701.31 -3.6304 749.47 35.6196 768.87 91.9493C776.96 115.449 780.89 139.76 782.39 164.58C782.689 169.47 779.99 173.3 776.34 174.55C771.38 176.25 767.83 173.93 765.36 169.34C754.97 150.1 738.67 134.869 718.43 126.739C682.51 112.33 652.22 135.85 631.26 162.8C620.52 176.6 610.94 190.15 601.16 204.87L533.97 305.989L476.07 395.08C461.05 418.19 443.96 438.959 425.06 458.819C411.79 472.759 397.17 484.13 380.52 493.43L380.53 493.44C337.63 517.42 291.46 517.31 253.79 484.14C225.38 459.12 203.98 416.45 198.07 379.64C197.68 377.21 199.36 373.279 200.69 371.779C202.441 369.82 206.42 368.87 209.26 369.83C225.72 375.39 242.93 376.38 259.5 370.98C290.39 360.92 315.52 337.48 336.14 312.98C352.98 292.98 367.98 272.59 383.08 251.09L446.98 160.09C461.36 139.61 475.9 120.449 491.52 100.989C506.19 82.7094 521.04 65.8299 538.36 50.0099C566.44 24.3599 601.48 4.16951 640.12 1.14952ZM580.521 308.38L677.04 449.02L689.76 464.54C702.33 477.25 718.19 482.81 736.09 482.77L805.65 482.609L773.6 434.38L634.95 225.51L580.521 308.38ZM352.22 68.2101C328.88 37.2801 290.66 23.1296 252.67 31.9796C226.01 38.1896 203.5 54.5193 187.77 76.8292C178.51 89.9692 172.48 103.84 166.95 119.06L116.69 257.39L74.04 375.48L35.2998 481.97C100.74 485.08 143.37 424.309 164.24 369.659L245.57 156.789C252.97 137.409 264.481 120.77 280.48 107.89C309.74 85.0399 341.07 87.8202 371.97 107.75C367.18 93.2202 361.16 80.06 352.22 68.2101ZM717.94 58.1495C685.63 25.7095 639.1 22.3796 599.34 43.1896C579.48 53.5796 562.2 66.9096 546.39 82.9796C523.49 106.26 503.44 131.12 484.42 157.77L394.66 283.529C366.89 322.439 341.94 357.42 301.03 383.72C280.06 396.91 257.77 404.46 231.8 403.97C245.75 437.68 267.87 469.49 305.09 479.56C349.92 489.41 392.52 453.05 419.66 421.35H419.64C434.02 404.55 446.86 387.47 459 368.87L498.04 309.08C531.35 258.07 564.16 207.58 599.42 157.93C614.86 136.18 631.44 117.6 654.46 103.98C686.39 86.2696 719.38 90.4299 748.12 113.09C743.04 91.78 732.77 73.0295 717.94 58.1495Z" fill="url(#paint0_linear_memsurf_logo)" fill-opacity="0.87"/>
<defs>
<linearGradient id="paint0_linear_memsurf_logo" x1="0.5" y1="1" x2="0.5" y2="0" gradientUnits="objectBoundingBox">
<stop stop-color="#6991CC"/>
<stop offset="0.548077" stop-color="#E6B3FF"/>
<stop offset="1" stop-color="#66C4B1"/>
</linearGradient>
</defs>
</svg>
